# xmcd
#
# Track frame offsets:
#	150
#	12720
#	25437
#	40176
#	54221
#	66124
#	80567
#	97539
#	110418
#	124102
#	139158
#
# Disc length: 2007 seconds
#
# Revision: 0
# Processed by: cddbd v1.5.2PL0 Copyright (c) Steve Scherf et al.
# Submitted via: dBpowerAMP V4.0
#
DISCID=8b07d50b
DTITLE=Slim Lighfoot - Alpha Male Delta Blues
DYEAR=2007
DGENRE=Blues
TTITLE0=Travelling Riverside Blues
TTITLE1=I Got Lazy In My Head
TTITLE2=Slims Jitterbug Blues
TTITLE3=You Can't Get That Stuff No More
TTITLE4=Keep Your Lamp Trimmed And Burning
TTITLE5=How Do You Live With Yourself
TTITLE6=George Bush Jnr Blues
TTITLE7=Hold Your Head Up High
TTITLE8=Goodnight Irene
TTITLE9=Come On In My Kitchen
TTITLE10=Country Shack (Revisited)
EXTD=More info at www.myspace.com/slimlightfoot
EXTT0=
EXTT1=
EXTT2=
EXTT3=
EXTT4=
EXTT5=
EXTT6=
EXTT7=
EXTT8=
EXTT9=
EXTT10=
PLAYORDER=
